<?xml version="1.0" encoding="UTF-8" standalone="no"?>
<!-- Created with Inkscape (http://www.inkscape.org/) -->

<svg
   xmlns:dc="http://purl.org/dc/elements/1.1/"
   xmlns:cc="http://creativecommons.org/ns#"
   xmlns:rdf="http://www.w3.org/1999/02/22-rdf-syntax-ns#"
   xmlns:svg="http://www.w3.org/2000/svg"
   xmlns="http://www.w3.org/2000/svg"
   xmlns:sodipodi="http://sodipodi.sourceforge.net/DTD/sodipodi-0.dtd"
   xmlns:inkscape="http://www.inkscape.org/namespaces/inkscape"
   width="3200"
   height="3200"
   id="svg2"
   version="1.1"
   inkscape:version="0.48.0 r9654"
   sodipodi:docname="sightseeing_rotated.svg"
   inkscape:export-filename="/home/markku/Data/repository/raisa/raisavis/data/sightseeing1.png"
   inkscape:export-xdpi="11.25"
   inkscape:export-ydpi="11.25">
  <defs
     id="defs4" />
  <sodipodi:namedview
     id="base"
     pagecolor="#ffffff"
     bordercolor="#666666"
     borderopacity="1.0"
     inkscape:pageopacity="0.0"
     inkscape:pageshadow="2"
     inkscape:zoom="0.22627417"
     inkscape:cx="2939.337"
     inkscape:cy="1486.0189"
     inkscape:document-units="px"
     inkscape:current-layer="layer1"
     showgrid="true"
     inkscape:window-width="1920"
     inkscape:window-height="1124"
     inkscape:window-x="0"
     inkscape:window-y="26"
     inkscape:window-maximized="1">
    <inkscape:grid
       type="xygrid"
       id="grid2987"
       empspacing="5"
       visible="true"
       enabled="true"
       snapvisiblegridlinesonly="true" />
  </sodipodi:namedview>
  <metadata
     id="metadata7">
    <rdf:RDF>
      <cc:Work
         rdf:about="">
        <dc:format>image/svg+xml</dc:format>
        <dc:type
           rdf:resource="http://purl.org/dc/dcmitype/StillImage" />
        <dc:title />
      </cc:Work>
    </rdf:RDF>
  </metadata>
  <g
     inkscape:label="Layer 1"
     inkscape:groupmode="layer"
     id="layer1"
     transform="translate(0,2147.6378)">
    <path
       style="fill:#c8c8c8;fill-opacity:1;fill-rule:nonzero;stroke:none"
       d="m 3200,-2147.6378 -3200,0 0,3200 3200,0 z m -1364.3588,1255.22 -8.2948,212.44105 -15.5539,12.57282 6.6107,71.80738 268.6945,14.25687 -11.9243,112.50694 -509.2623,-25.53267 7.9077,327.92906 -384.1825,1.94555 19.5705,-453.00882 268.6945,14.25687 -6.6107,-71.80738 -199.8682,7.25919 -6.6106,-71.80737 212.441,8.29472 5.3136,-184.31432 -213.9315,5.76865 5.9621,-56.25346 332.7249,13.93261 -14.2568,268.69451 -7.777,6.28642 -7.4527,70.31683 56.2535,5.96216 2.3326,-156.18758 28.1267,2.98108 1.1663,-78.09379 40.3753,-45.49544 78.0938,1.16629 1.4905,-14.06337 z"
       id="rect3794"
       inkscape:export-xdpi="11.25"
       inkscape:export-ydpi="11.25"
       inkscape:export-filename="/home/markku/Data/repository/raisa/raisavis/data/sightseeing1.png"
       inkscape:connector-curvature="0"
       sodipodi:nodetypes="ccccccccccccccccccccccccccccccccccc" />
    <g
       id="g2993"
       transform="matrix(-0.03537064,0.99937426,-0.99937426,-0.03537064,2150.2849,-982.89103)"
       style="fill:none;stroke:#000000;stroke-width:8;stroke-miterlimit:4;stroke-opacity:1;stroke-dasharray:none"
       inkscape:export-xdpi="11.25"
       inkscape:export-ydpi="11.25">
      <path
         inkscape:connector-curvature="0"
         id="path3012"
         d="m 400,52.362183 c 0,269.999997 0,269.999997 0,269.999997 l -80,0 0,0 0,-10 0,0 -210,0 0,0 0,45 10,0 0,80"
         style="fill:none;stroke:#000000;stroke-width:8;stroke-linecap:butt;stroke-linejoin:miter;stroke-miterlimit:4;stroke-opacity:1;stroke-dasharray:none" />
      <path
         inkscape:connector-curvature="0"
         id="path3014"
         d="m 400,387.36218 c 0,115 0,115 0,115 l -155,0 c 0,-30 0,-30 0,-30"
         style="fill:none;stroke:#000000;stroke-width:8;stroke-linecap:butt;stroke-linejoin:miter;stroke-miterlimit:4;stroke-opacity:1;stroke-dasharray:none" />
      <path
         inkscape:connector-curvature="0"
         id="path3016"
         d="m 120,437.36218 45,35 80,0"
         style="fill:none;stroke:#000000;stroke-width:8;stroke-linecap:butt;stroke-linejoin:miter;stroke-miterlimit:4;stroke-opacity:1;stroke-dasharray:none" />
      <path
         inkscape:connector-curvature="0"
         id="path3018"
         d="m 400,387.36218 0,170 -80,0 0,-10 0,0 -265,0"
         style="fill:none;stroke:#000000;stroke-width:8;stroke-linecap:butt;stroke-linejoin:miter;stroke-miterlimit:4;stroke-opacity:1;stroke-dasharray:none" />
      <path
         inkscape:connector-curvature="0"
         id="path3026"
         d="m 205,552.36218 -145,0 0,50 145,0 z"
         style="fill:none;stroke:#000000;stroke-width:8;stroke-linecap:butt;stroke-linejoin:miter;stroke-miterlimit:4;stroke-opacity:1;stroke-dasharray:none" />
      <path
         inkscape:connector-curvature="0"
         id="path3028"
         d="m 55,547.36218 0,330 45,0 0,-215 180,0"
         style="fill:none;stroke:#000000;stroke-width:8;stroke-linecap:butt;stroke-linejoin:miter;stroke-miterlimit:4;stroke-opacity:1;stroke-dasharray:none" />
      <path
         inkscape:connector-curvature="0"
         id="path3030"
         d="m 280,877.36218 0,-215"
         style="fill:none;stroke:#000000;stroke-width:8;stroke-linecap:butt;stroke-linejoin:miter;stroke-miterlimit:4;stroke-opacity:1;stroke-dasharray:none" />
      <path
         inkscape:connector-curvature="0"
         id="path3032"
         d="m 280,877.36218 60,0 0,-215 60,0 0,-40"
         style="fill:none;stroke:#000000;stroke-width:8;stroke-linecap:butt;stroke-linejoin:miter;stroke-miterlimit:4;stroke-opacity:1;stroke-dasharray:none" />
      <path
         inkscape:connector-curvature="0"
         id="path3034"
         d="m 400,662.36218 0,260"
         style="fill:none;stroke:#000000;stroke-width:8;stroke-linecap:butt;stroke-linejoin:miter;stroke-miterlimit:4;stroke-opacity:1;stroke-dasharray:none" />
      <path
         inkscape:connector-curvature="0"
         id="path3036"
         d="m 400,52.362183 110,0 0,269.999997 0,250 200,0"
         style="fill:none;stroke:#000000;stroke-width:8;stroke-linecap:butt;stroke-linejoin:miter;stroke-miterlimit:4;stroke-opacity:1;stroke-dasharray:none" />
    </g>
  </g>
</svg>
