<?xml version="1.0" encoding="UTF-8" standalone="no"?>
<!-- Created with Inkscape (http://www.inkscape.org/) -->

<svg
   xmlns:dc="http://purl.org/dc/elements/1.1/"
   xmlns:cc="http://creativecommons.org/ns#"
   xmlns:rdf="http://www.w3.org/1999/02/22-rdf-syntax-ns#"
   xmlns:svg="http://www.w3.org/2000/svg"
   xmlns="http://www.w3.org/2000/svg"
   xmlns:sodipodi="http://sodipodi.sourceforge.net/DTD/sodipodi-0.dtd"
   xmlns:inkscape="http://www.inkscape.org/namespaces/inkscape"
   width="3200"
   height="3200"
   id="svg2"
   version="1.1"
   inkscape:version="0.48.0 r9654"
   sodipodi:docname="sightseeing_rotated.svg"
   inkscape:export-filename="/home/markku/Data/repository/raisa/raisavis/data/sightseeing1.png"
   inkscape:export-xdpi="11.25"
   inkscape:export-ydpi="11.25">
  <defs
     id="defs4" />
  <sodipodi:namedview
     id="base"
     pagecolor="#ffffff"
     bordercolor="#666666"
     borderopacity="1.0"
     inkscape:pageopacity="0.0"
     inkscape:pageshadow="2"
     inkscape:zoom="0.22627417"
     inkscape:cx="1412.7341"
     inkscape:cy="1678.3067"
     inkscape:document-units="px"
     inkscape:current-layer="layer1"
     showgrid="true"
     inkscape:window-width="1920"
     inkscape:window-height="1124"
     inkscape:window-x="0"
     inkscape:window-y="26"
     inkscape:window-maximized="1">
    <inkscape:grid
       type="xygrid"
       id="grid2987"
       empspacing="5"
       visible="true"
       enabled="true"
       snapvisiblegridlinesonly="true" />
  </sodipodi:namedview>
  <metadata
     id="metadata7">
    <rdf:RDF>
      <cc:Work
         rdf:about="">
        <dc:format>image/svg+xml</dc:format>
        <dc:type
           rdf:resource="http://purl.org/dc/dcmitype/StillImage" />
        <dc:title></dc:title>
      </cc:Work>
    </rdf:RDF>
  </metadata>
  <g
     inkscape:label="Layer 1"
     inkscape:groupmode="layer"
     id="layer1"
     transform="translate(0,2147.6378)">
    <path
       style="fill:#c8c8c8;fill-opacity:1;fill-rule:nonzero;stroke:none"
       d="M 25 0 C 11.15 0 0 13.183369 0 29.5625 L 0 3170.4375 C 0 3186.8166 11.15 3200 25 3200 L 3175 3200 C 3188.85 3200 3200 3186.8166 3200 3170.4375 L 3200 29.5625 C 3200 13.183369 3188.85 9.1496859e-17 3175 0 L 25 0 z M 1480 1200 L 1640 1340 L 1640 1360 L 1700 1400 L 1880 1200 L 1960 1280 L 1620 1660 L 1880 1860 L 1640 2160 L 1300 1860 L 1480 1660 L 1420 1620 L 1300 1780 L 1240 1740 L 1380 1580 L 1240 1460 L 1110 1630 L 1070 1590 L 1290 1340 L 1490 1520 L 1490 1530 L 1540 1580 L 1580 1540 L 1460 1440 L 1480 1420 L 1420 1370 L 1410 1310 L 1460 1250 L 1450 1240 L 1480 1200 z "
       transform="translate(0,-2147.6378)"
       id="rect3794"
       inkscape:export-xdpi="11.25"
       inkscape:export-ydpi="11.25"
       inkscape:export-filename="/home/markku/Data/repository/raisa/raisavis/data/sightseeing1.png" />
    <g
       id="g2993"
       transform="matrix(0.75497322,0.65575562,-0.65575562,0.75497322,1607.4375,-1249.21)"
       style="fill:none;stroke:#000000;stroke-width:8;stroke-miterlimit:4;stroke-opacity:1;stroke-dasharray:none"
       inkscape:export-xdpi="11.25"
       inkscape:export-ydpi="11.25">
      <path
         inkscape:connector-curvature="0"
         id="path3012"
         d="m 400,52.362183 c 0,269.999997 0,269.999997 0,269.999997 l -80,0 0,0 0,-10 0,0 -210,0 0,0 0,45 10,0 0,80"
         style="fill:none;stroke:#000000;stroke-width:8;stroke-linecap:butt;stroke-linejoin:miter;stroke-miterlimit:4;stroke-opacity:1;stroke-dasharray:none" />
      <path
         inkscape:connector-curvature="0"
         id="path3014"
         d="m 400,387.36218 c 0,115 0,115 0,115 l -155,0 c 0,-30 0,-30 0,-30"
         style="fill:none;stroke:#000000;stroke-width:8;stroke-linecap:butt;stroke-linejoin:miter;stroke-miterlimit:4;stroke-opacity:1;stroke-dasharray:none" />
      <path
         inkscape:connector-curvature="0"
         id="path3016"
         d="m 120,437.36218 45,35 80,0"
         style="fill:none;stroke:#000000;stroke-width:8;stroke-linecap:butt;stroke-linejoin:miter;stroke-miterlimit:4;stroke-opacity:1;stroke-dasharray:none" />
      <path
         inkscape:connector-curvature="0"
         id="path3018"
         d="m 400,387.36218 0,170 -80,0 0,-10 0,0 -265,0"
         style="fill:none;stroke:#000000;stroke-width:8;stroke-linecap:butt;stroke-linejoin:miter;stroke-miterlimit:4;stroke-opacity:1;stroke-dasharray:none" />
      <path
         inkscape:connector-curvature="0"
         id="path3026"
         d="m 205,552.36218 -145,0 0,50 145,0 z"
         style="fill:none;stroke:#000000;stroke-width:8;stroke-linecap:butt;stroke-linejoin:miter;stroke-miterlimit:4;stroke-opacity:1;stroke-dasharray:none" />
      <path
         inkscape:connector-curvature="0"
         id="path3028"
         d="m 55,547.36218 0,330 45,0 0,-215 180,0"
         style="fill:none;stroke:#000000;stroke-width:8;stroke-linecap:butt;stroke-linejoin:miter;stroke-miterlimit:4;stroke-opacity:1;stroke-dasharray:none" />
      <path
         inkscape:connector-curvature="0"
         id="path3030"
         d="m 280,877.36218 0,-215"
         style="fill:none;stroke:#000000;stroke-width:8;stroke-linecap:butt;stroke-linejoin:miter;stroke-miterlimit:4;stroke-opacity:1;stroke-dasharray:none" />
      <path
         inkscape:connector-curvature="0"
         id="path3032"
         d="m 280,877.36218 60,0 0,-215 60,0 0,-40"
         style="fill:none;stroke:#000000;stroke-width:8;stroke-linecap:butt;stroke-linejoin:miter;stroke-miterlimit:4;stroke-opacity:1;stroke-dasharray:none" />
      <path
         inkscape:connector-curvature="0"
         id="path3034"
         d="m 400,662.36218 0,260"
         style="fill:none;stroke:#000000;stroke-width:8;stroke-linecap:butt;stroke-linejoin:miter;stroke-miterlimit:4;stroke-opacity:1;stroke-dasharray:none" />
      <path
         inkscape:connector-curvature="0"
         id="path3036"
         d="m 400,52.362183 110,0 0,269.999997 0,250 200,0"
         style="fill:none;stroke:#000000;stroke-width:8;stroke-linecap:butt;stroke-linejoin:miter;stroke-miterlimit:4;stroke-opacity:1;stroke-dasharray:none" />
    </g>
  </g>
</svg>
